<?xml version="1.0" standalone="no"?><!DOCTYPE svg PUBLIC "-//W3C//DTD SVG 1.1//EN" "http://www.w3.org/Graphics/SVG/1.1/DTD/svg11.dtd"><svg t="1567087765765" class="icon" viewBox="0 0 1024 1024" version="1.1" xmlns="http://www.w3.org/2000/svg" p-id="1257" width="16" height="16" xmlns:xlink="http://www.w3.org/1999/xlink"><defs><style type="text/css"></style></defs><path d="M512.3 128.3c51.9 0 102.2 10.1 149.5 30.2 45.7 19.3 86.8 47 122.1 82.3s63 76.4 82.3 122.1c20 47.3 30.2 97.6 30.2 149.5s-10.1 102.2-30.2 149.5c-19.3 45.7-47 86.8-82.3 122.1s-76.4 63-122.1 82.3c-47.3 20-97.6 30.2-149.5 30.2s-102.2-10.1-149.5-30.2c-45.7-19.3-86.8-47-122.1-82.3s-63-76.4-82.3-122.1c-20-47.3-30.2-97.6-30.2-149.5s10.1-102.2 30.2-149.5c19.3-45.7 47-86.8 82.3-122.1s76.4-63 122.1-82.3c47.4-20 97.7-30.2 149.5-30.2m0-64c-247.4 0-448 200.6-448 448s200.6 448 448 448 448-200.6 448-448-200.5-448-448-448z" p-id="1258"></path><path d="M376.3 327.8L512.1 192l135.7 135.8M696.2 376.3L832 512.1 696.2 647.8M647.7 696.2L511.9 832 376.2 696.2M327.8 647.7L192 511.9l135.8-135.7M547.8 555.8h-71.7l-17.6 58.8h-33l68.3-206.1h37.5l68.3 206.1h-34.4l-17.4-58.8z m-7.8-25.5l-8.1-27.7c-7-22.4-13.2-45.4-19.6-68.6h-1.1c-5.9 23.5-12.3 46.2-19 68.6l-8.4 27.7H540z" p-id="1259"></path></svg>