<?xml version="1.0" standalone="no"?><!DOCTYPE svg PUBLIC "-//W3C//DTD SVG 1.1//EN" "http://www.w3.org/Graphics/SVG/1.1/DTD/svg11.dtd"><svg t="1568165641120" class="icon" viewBox="0 0 1024 1024" version="1.1" xmlns="http://www.w3.org/2000/svg" p-id="4846" xmlns:xlink="http://www.w3.org/1999/xlink" width="16" height="16"><defs><style type="text/css"></style></defs><path d="M544 448c0-19.2-12.8-32-32-32s-32 12.8-32 32v128h-128c-19.2 0-32 12.8-32 32s12.8 32 32 32h128v128c0 19.2 12.8 32 32 32s32-12.8 32-32v-128h128c19.2 0 32-12.8 32-32s-12.8-32-32-32h-128v-128z" p-id="4847"></path><path d="M854.4 297.6l-224-224c-6.4-6.4-12.8-9.6-22.4-9.6h-352c-54.4 0-96 41.6-96 96v704c0 54.4 41.6 96 96 96h512c54.4 0 96-41.6 96-96v-544c0-9.6-3.2-16-9.6-22.4z m-246.4-156.8l179.2 179.2h-179.2v-179.2z m192 723.2c0 19.2-12.8 32-32 32h-512c-19.2 0-32-12.8-32-32v-704c0-19.2 12.8-32 32-32h288v192c0 35.2 28.8 64 64 64h192v480z" p-id="4848"></path></svg>