<?xml version="1.0" standalone="no"?><!DOCTYPE svg PUBLIC "-//W3C//DTD SVG 1.1//EN" "http://www.w3.org/Graphics/SVG/1.1/DTD/svg11.dtd"><svg t="1574739073368" class="icon" viewBox="0 0 1024 1024" version="1.1" xmlns="http://www.w3.org/2000/svg" p-id="494" width="32" height="32" xmlns:xlink="http://www.w3.org/1999/xlink"><defs><style type="text/css"></style></defs><path d="M415.036522 557.334759c-1.277035-13.500089 5.837876-19.337965 17.331196-22.621771 18.06093-5.837876 36.12186-10.946018 55.277392-8.939248 17.331195 2.554071 30.283984 11.675753 36.12186 27.729912 4.560841 10.946018 7.114912 22.621771 10.216283 35.392126 2.00677-2.554071 3.283805-4.560841 4.560841-6.385178 8.939248-13.500089 18.06093-27.729913 28.277214-39.952966 5.108142-6.385177 12.223054-12.223054 19.885266-16.05416 14.229824-7.114912 29.554249-3.283805 37.398895 7.662213 7.662213 10.946018 7.114912 29.554249-2.00677 40.500267-10.946018 12.952788-25.175842 14.229824-40.500267 12.223054-3.283805-0.729735-7.114912-1.277035-10.216283-2.554071-9.668983-5.108142-15.506859-0.729735-21.162302 6.385177-12.952788 16.05416-13.500089 15.506859-7.662213 35.392125 3.831106 14.777125 8.391947 30.283984 13.500089 45.061109 7.114912 21.162302 19.337965 27.729913 41.230002 22.62177 3.831106-1.277035 7.662213-2.00677 12.223054-3.283805 0.729735 12.223054-2.00677 16.05416-12.952789 20.615001-18.608231 7.114912-37.398895 12.952788-58.013896 10.946018-18.608231-2.00677-32.838055-11.675753-38.675931-29.554249-3.831106-10.946018-6.385177-22.621771-10.216283-35.392125-2.00677 2.554071-3.283805 4.560841-4.560841 6.385177-9.668983 13.500089-18.608231 27.729913-29.554249 41.230002-4.560841 5.837876-10.946018 10.946018-18.06093 14.229823-14.229824 7.114912-30.283984 3.283805-38.675931-7.662212s-7.114912-30.283984 3.283805-41.230002c10.946018-12.952788 25.723143-13.500089 41.230002-10.946018 3.831106 0.729735 7.662213 1.277035 10.946018 2.554071 7.662213 3.831106 12.952788 1.277035 17.331196-5.108142 3.283805-4.560841 7.662213-8.391947 10.216283-13.500089 2.00677-2.554071 2.554071-7.114912 2.00677-9.668983-5.108142-18.06093-10.216284-36.12186-15.506859-54.000356-7.114912-23.898806-19.885266-30.283984-43.784073-23.898807-2.371637-0.182434-6.202744 1.094602-9.486549 1.824337z m254.85979-66.953145h30.831285c2.00677 0 5.108142 2.00677 6.385177 3.831106 30.283984 46.338144 40.500267 96.507394 33.385355 151.237485-4.560841 39.223232-22.621771 72.791021-43.054338 105.629075-0.729735 1.277035-3.283805 3.283805-4.560841 3.283806h-32.10832c49.804383-87.020844 52.358454-173.859255 9.121682-263.981472zM362.313201 754.180652h-30.831284c-2.00677 0-4.560841-1.277035-5.108142-2.554071-19.337965-30.283984-36.669161-61.845003-42.507037-97.784429-8.391947-56.736861 0.729735-109.460182 32.10832-157.805095 1.277035-2.554071 5.108142-4.560841 7.662213-4.560841 9.668983-0.729735 19.337965 0 29.554249 0-42.507037 88.29788-39.952966 175.866025 9.121681 262.704436z" fill="#231903" p-id="495"></path><path d="M893.924817 1.094602H129.892749C59.108498 1.094602 1.094602 58.378764 1.094602 129.892749v764.214502c0 70.784251 58.013896 128.798147 128.798147 128.798147h764.214502c70.784251 0 128.798147-58.013896 128.798147-128.798147V129.892749C1022.722965 59.108498 964.709068 1.094602 893.924817 1.094602zM427.259576 93.223588h61.115268v-52.905754c0-12.952788 10.216284-23.169072 23.169072-23.169072s23.169072 10.216284 23.169072 23.169072v52.72332H595.828256c12.952788 0 23.169072 10.216284 23.169072 23.169072s-10.216284 23.169072-23.169072 23.169072h-61.115268v52.723321c0 12.952788-10.216284 23.169072-23.169072 23.169072s-23.169072-10.216284-23.169072-23.169072V139.561732h-61.115268c-12.952788 0-23.169072-10.216284-23.169072-23.169072-0.729735-12.223054 10.216284-23.169072 23.169072-23.169072z m546.571174 764.032069c0 64.399074-52.17602 116.575094-116.575093 116.575093H166.56191c-64.399074 0-116.575094-52.17602-116.575094-116.575093V348.083378c0-64.399074 52.17602-116.575094 116.575094-116.575094h690.693747c64.399074 0 116.575094 52.17602 116.575093 116.575094v509.172279z" fill="#1AAA5E" p-id="496"></path></svg>