<?xml version="1.0" standalone="no"?><!DOCTYPE svg PUBLIC "-//W3C//DTD SVG 1.1//EN" "http://www.w3.org/Graphics/SVG/1.1/DTD/svg11.dtd"><svg t="1567389709705" class="icon" viewBox="0 0 1024 1024" version="1.1" xmlns="http://www.w3.org/2000/svg" p-id="3569" xmlns:xlink="http://www.w3.org/1999/xlink" width="16" height="16"><defs><style type="text/css"></style></defs><path d="M831.9 395.4zM831.9 395.8c0 0.1 0.1 0.2 0.1 0.4v-0.7c-0.1 0-0.1 0.1-0.1 0.3z" p-id="3570"></path><path d="M922.8 497.1H184.5c-26.7 0-50.4 17.3-58.6 42.7L61.5 738.2V203.5h307.7c0 68 55 123 122.9 123h307.6V419c0.2 16.8 13.8 30.4 30.7 30.4 17 0 30.7-13.8 30.7-30.7 0-0.1-0.1-0.2-0.1-0.4h0.2v-91.8c0-34-27.5-61.5-61.5-61.6H492.1c-34 0-61.5-27.5-61.5-61.5 0-16.3-6.5-31.9-18-43.4s-27.2-18-43.4-18H61.5C27.6 142 0.1 169.5 0 203.4v724.2c0.1 34 27.6 61.4 61.6 61.4h738.1c26.8 0 50.5-17.2 58.7-42.7l125.9-387.7c-0.1-33.9-27.5-61.4-61.5-61.5zM983.5 173c-38.2-74-158.9-228.5-457-67.5 0 0 328.2-81.3 367.9 99.8l-54.4 1.3 134.4 84.5 49.4-150.8-40.3 32.7z" p-id="3571"></path></svg>