<?xml version="1.0" standalone="no"?><!DOCTYPE svg PUBLIC "-//W3C//DTD SVG 1.1//EN" "http://www.w3.org/Graphics/SVG/1.1/DTD/svg11.dtd"><svg t="1567392541842" class="icon" viewBox="0 0 1024 1024" version="1.1" xmlns="http://www.w3.org/2000/svg" p-id="13342" xmlns:xlink="http://www.w3.org/1999/xlink" width="16" height="16"><defs><style type="text/css"></style></defs><path d="M512 103.202595a407.579676 407.579676 0 1 0 0 815.159351c225.113946 0 407.579676-182.493405 407.579676-407.579676 0-225.113946-182.46573-407.579676-407.579676-407.579675zM13.837838 510.78227c0-275.123892 223.065946-498.162162 498.162162-498.162162s498.162162 223.03827 498.162162 498.162162c0 275.096216-223.065946 498.162162-498.162162 498.162162s-498.162162-223.065946-498.162162-498.162162z" p-id="13343"></path><path d="M692.057946 589.021405c25.738378-16.937514 41.347459-46.495135 41.347459-78.239135s-15.609081-61.273946-41.347459-78.211459l-238.010811-156.505946C395.07027 237.291243 318.27027 281.572324 318.27027 354.304V667.260541c0 72.704 76.8 116.957405 135.776865 78.211459l237.95546-156.47827h0.055351z m-47.242378-78.239135L406.832432 667.260541V354.304l238.010811 156.47827H644.843243z" p-id="13344"></path></svg>